# xmcd
#
# Track frame offsets:
#	150
#	6257
#	24119
#	40304
#	56829
#	80859
#	102655
#	119002
#	137244
#	158521
#	180269
#	196260
#	210163
#	263681
#	279328
#	283702
#	301082
#	318372
#	334829
#
# Disc length: 4688 seconds
#
# Revision: 0
# Processed by: cddbd v1.4PL0 Copyright (c) Steve Scherf et al.
# Submitted via: audiograbber 1.80.04
#
DISCID=06124e13
DTITLE=Down Low - The 4th level
DYEAR=1999
DGENRE=Rap
TTITLE0=Intro
TTITLE1=Wouldn't it be good
TTITLE2=Don't you
TTITLE3=La Serenissima
TTITLE4=Stay
TTITLE5=Tell me
TTITLE6=Another day...
TTITLE7=Will I ever live again
TTITLE8=Evelasting live
TTITLE9=Can we get it on
TTITLE10=I want you back
TTITLE11=You don't ... how we do
TTITLE12=Bonus track: Megamix
TTITLE13=Never Again
TTITLE14=Outro
TTITLE15=Thank You
TTITLE16=Don't Look Any Further
TTITLE17=Hit Me Right
TTITLE18=Yesterday
EXTD=
EXTT0=
EXTT1=
EXTT2=
EXTT3=
EXTT4=
EXTT5=
EXTT6=
EXTT7=
EXTT8=
EXTT9=
EXTT10=
EXTT11=
EXTT12=
EXTT13=
EXTT14=
EXTT15=
EXTT16=
EXTT17=
EXTT18=
PLAYORDER=
